<svg xmlns="http://www.w3.org/2000/svg" xmlns:xlink="http://www.w3.org/1999/xlink" width="960" height="540" viewBox="0 0 960 540">
  <defs>
    <filter id="Rectangle_33" x="510" y="267.5" width="415" height="55" filterUnits="userSpaceOnUse">
      <feOffset dx="5" dy="5" input="SourceAlpha"/>
      <feGaussianBlur stdDeviation="2.5" result="blur"/>
      <feFlood flood-opacity="0.161"/>
      <feComposite operator="in" in2="blur"/>
      <feComposite in="SourceGraphic"/>
    </filter>
    <filter id="Rectangle_34" x="510" y="182.5" width="415" height="55" filterUnits="userSpaceOnUse">
      <feOffset dx="5" dy="5" input="SourceAlpha"/>
      <feGaussianBlur stdDeviation="2.5" result="blur-2"/>
      <feFlood flood-opacity="0.161"/>
      <feComposite operator="in" in2="blur-2"/>
      <feComposite in="SourceGraphic"/>
    </filter>
    <filter id="Rectangle_37" x="510.25" y="60.609" width="420.5" height="76.782" filterUnits="userSpaceOnUse">
      <feOffset dx="5" dy="5" input="SourceAlpha"/>
      <feGaussianBlur stdDeviation="2.5" result="blur-3"/>
      <feFlood flood-opacity="0.161"/>
      <feComposite operator="in" in2="blur-3"/>
      <feComposite in="SourceGraphic"/>
    </filter>
    <filter id="Rectangle_35" x="510" y="437.5" width="415" height="55" filterUnits="userSpaceOnUse">
      <feOffset dx="5" dy="5" input="SourceAlpha"/>
      <feGaussianBlur stdDeviation="2.5" result="blur-4"/>
      <feFlood flood-opacity="0.161"/>
      <feComposite operator="in" in2="blur-4"/>
      <feComposite in="SourceGraphic"/>
    </filter>
    <filter id="Rectangle_36" x="510" y="352.5" width="415" height="55" filterUnits="userSpaceOnUse">
      <feOffset dx="5" dy="5" input="SourceAlpha"/>
      <feGaussianBlur stdDeviation="2.5" result="blur-5"/>
      <feFlood flood-opacity="0.161"/>
      <feComposite operator="in" in2="blur-5"/>
      <feComposite in="SourceGraphic"/>
    </filter>
    <clipPath id="clip-Poll">
      <rect width="960" height="540"/>
    </clipPath>
  </defs>
  <g id="Poll" clip-path="url(#clip-Poll)">
    <rect width="960" height="540" fill="#fff"/>
    <g id="Thoughts-pana" transform="translate(20.74 16.375)">
      <g id="freepik--background-complete--inject-9">
        <path id="Path_1" data-name="Path 1" d="M300.65,135.2a2,2,0,0,0-1.68,1.21l-3.62,8.92a1.93,1.93,0,0,0,1.58,2.65,6,6,0,0,1,4.1,2.44,5.43,5.43,0,0,1,1.09,4.15,5.56,5.56,0,0,1-2.5,3.53,6.2,6.2,0,0,1-4.62.9,7.23,7.23,0,0,1-5.17-7.39,1.94,1.94,0,0,0-3.86-.29,11.15,11.15,0,0,0,8.16,11.45,10,10,0,0,0,7.67-1.48,9.45,9.45,0,0,0,4.17-6.07,9.29,9.29,0,0,0-1.79-7.15,10.07,10.07,0,0,0-4.36-3.37l2.79-6.88a1.94,1.94,0,0,0-1.07-2.52,2.06,2.06,0,0,0-.89-.1Z" fill="#e0e0e0"/>
        <path id="Path_2" data-name="Path 2" d="M304.64,132.45a1.58,1.58,0,1,0-2.09.82,1.58,1.58,0,0,0,2.09-.82Z" fill="#e0e0e0"/>
        <path id="Path_3" data-name="Path 3" d="M244.67,65.07a1.9,1.9,0,0,0-.3-2l-6.21-7.27a1.916,1.916,0,0,0-3.06.19,5.93,5.93,0,0,1-4,2.49,5.34,5.34,0,0,1-4.16-.93,5.47,5.47,0,0,1-2-3.81,6.11,6.11,0,0,1,1.3-4.55A7.17,7.17,0,0,1,235.12,48a1.92,1.92,0,1,0,2-3.27,11.08,11.08,0,0,0-13.83,2,9.89,9.89,0,0,0-2.19,7.44,9.35,9.35,0,0,0,3.44,6.45,9.23,9.23,0,0,0,7.13,1.68,10,10,0,0,0,5-2.3l4.79,5.6a1.92,1.92,0,0,0,2.7.21A1.88,1.88,0,0,0,244.67,65.07Z" fill="#e0e0e0"/>
        <path id="Path_4" data-name="Path 4" d="M245.28,69.85a1.577,1.577,0,1,0,.22-2.22,1.577,1.577,0,0,0-.22,2.22Z" fill="#e0e0e0"/>
        <rect id="Rectangle_14" data-name="Rectangle 14" width="88.83" height="128.76" transform="translate(372.99 70.36)" fill="#e0e0e0"/>
        <rect id="Rectangle_15" data-name="Rectangle 15" width="88.83" height="128.76" transform="translate(368.54 70.36)" fill="#f5f5f5"/>
        <rect id="Rectangle_16" data-name="Rectangle 16" width="66.76" height="100.87" transform="translate(379.58 84.3)" fill="#fff"/>
        <path id="Path_5" data-name="Path 5" d="M446.34,185.17v-7.45c0-4.84,0-11.88-.06-20.78,0-17.79-.06-43-.1-72.64l.22.23H379.64l.24-.25c0,38.06,0,73.14-.05,100.87l-.19-.19,48.59.1h.12l-48.71.11h-.2V83.86h67.22v.22c-.05,29.72-.08,55-.11,72.78,0,8.88-.05,15.91-.06,20.73v6.9A2.016,2.016,0,0,1,446.34,185.17Z" fill="#e0e0e0"/>
        <path id="Path_6" data-name="Path 6" d="M457.62,70.36a15.579,15.579,0,0,1-1.58,2.3c-1,1.38-2.5,3.26-4.17,5.29s-3.23,3.82-4.39,5.1a14.733,14.733,0,0,1-2,2,16.661,16.661,0,0,1,1.69-2.21l4.28-5.19,4.27-5.19A16.789,16.789,0,0,1,457.62,70.36Z" fill="#e0e0e0"/>
        <path id="Path_7" data-name="Path 7" d="M446.68,184.85a82.492,82.492,0,0,0,11.64,14.56" fill="#fff"/>
        <path id="Path_8" data-name="Path 8" d="M458.32,199.41a12.641,12.641,0,0,1-2-1.85,65.015,65.015,0,0,1-4.39-4.95,62.544,62.544,0,0,1-3.87-5.38,12.471,12.471,0,0,1-1.35-2.38,17.54,17.54,0,0,1,1.63,2.19c1,1.38,2.36,3.26,4,5.27s3.13,3.76,4.26,5a19.3,19.3,0,0,1,1.72,2.1Z" fill="#e0e0e0"/>
        <path id="Path_9" data-name="Path 9" d="M368.53,199l11.63-14.36" fill="#fff"/>
        <path id="Path_10" data-name="Path 10" d="M380.16,184.66a85.1,85.1,0,0,1-5.63,7.33,89.581,89.581,0,0,1-6,7,83.31,83.31,0,0,1,5.63-7.33,89.576,89.576,0,0,1,6-7Z" fill="#e0e0e0"/>
        <path id="Path_11" data-name="Path 11" d="M368.54,70.36a83.123,83.123,0,0,1,5.65,6.75,83.175,83.175,0,0,1,5.27,7,78.551,78.551,0,0,1-5.65-6.75,80.623,80.623,0,0,1-5.27-7Z" fill="#e0e0e0"/>
        <rect id="Rectangle_17" data-name="Rectangle 17" width="22.35" height="63.47" transform="translate(403.18 104.78)" fill="#e0e0e0"/>
        <rect id="Rectangle_18" data-name="Rectangle 18" width="7.11" height="35.36" transform="matrix(1, -0.005, 0.005, 1, 112.29, 76.051)" fill="#e0e0e0"/>
        <rect id="Rectangle_19" data-name="Rectangle 19" width="18.4" height="19.52" transform="matrix(1, -0.005, 0.005, 1, 50.722, 76.205)" fill="#ebebeb"/>
        <rect id="Rectangle_20" data-name="Rectangle 20" width="18.4" height="19.52" transform="matrix(1, -0.005, 0.005, 1, 69.041, 76.105)" fill="#f5f5f5"/>
        <path id="Path_12" data-name="Path 12" d="M50.75,81.6q18.35.15,36.72-.17a.2.2,0,0,0,0-.39C75.23,81,63,81,50.75,81.27a.165.165,0,0,0,0,.33Z" fill="#e0e0e0"/>
        <rect id="Rectangle_21" data-name="Rectangle 21" width="33.44" height="15.91" transform="matrix(1, -0.005, 0.005, 1, 39.256, 95.486)" fill="#ebebeb"/>
        <rect id="Rectangle_22" data-name="Rectangle 22" width="33.44" height="15.91" transform="matrix(1, -0.005, 0.005, 1, 72.524, 95.306)" fill="#f5f5f5"/>
        <path id="Path_13" data-name="Path 13" d="M39.27,99.91c22.21.25,44.5,0,66.71-.33a.2.2,0,0,0,0-.39c-22.21-.12-44.51-.1-66.71.39a.165.165,0,0,0,0,.33Z" fill="#e0e0e0"/>
        <rect id="Rectangle_23" data-name="Rectangle 23" width="129.54" height="5.7" transform="translate(26.76 111.4)" fill="#e0e0e0"/>
        <rect id="Rectangle_24" data-name="Rectangle 24" width="5.26" height="19.45" transform="translate(47.97 114.14)" fill="#e0e0e0"/>
        <rect id="Rectangle_25" data-name="Rectangle 25" width="5.26" height="19.45" transform="translate(126.47 114.14)" fill="#e0e0e0"/>
        <rect id="Rectangle_26" data-name="Rectangle 26" width="7.11" height="48.64" transform="matrix(1, -0.005, 0.005, 1, 119.219, 62.864)" fill="#ebebeb"/>
        <rect id="Rectangle_27" data-name="Rectangle 27" width="11.04" height="39.41" transform="matrix(1, -0.005, 0.005, 1, 126.388, 71.945)" fill="#f5f5f5"/>
        <path id="Path_14" data-name="Path 14" d="M137.35,79.48a39.3,39.3,0,0,1-5.52.19,39.3,39.3,0,0,1-5.52-.19,39.3,39.3,0,0,1,5.52-.19A39.3,39.3,0,0,1,137.35,79.48Z" fill="#e0e0e0"/>
        <path id="Path_15" data-name="Path 15" d="M137.35,77.82a38.33,38.33,0,0,1-5.52.2,38.33,38.33,0,0,1-5.52-.2,41.209,41.209,0,0,1,5.52-.19A41.209,41.209,0,0,1,137.35,77.82Z" fill="#e0e0e0"/>
        <path id="Path_16" data-name="Path 16" d="M137.35,105.37a39.3,39.3,0,0,1-5.52.19,39.3,39.3,0,0,1-5.52-.19,39.3,39.3,0,0,1,5.52-.19,39.3,39.3,0,0,1,5.52.19Z" fill="#e0e0e0"/>
        <path id="Path_17" data-name="Path 17" d="M137.35,103.71a38.331,38.331,0,0,1-5.52.2,38.332,38.332,0,0,1-5.52-.2,41.212,41.212,0,0,1,5.52-.19,41.209,41.209,0,0,1,5.52.19Z" fill="#e0e0e0"/>
        <path id="Path_18" data-name="Path 18" d="M132,100.1c-.1,0-.19-4-.19-8.88s.09-8.88.19-8.88.19,4,.19,8.88S132.12,100.1,132,100.1Z" fill="#e0e0e0"/>
        <rect id="Rectangle_28" data-name="Rectangle 28" width="12.02" height="29.75" transform="translate(137.47 81.57)" fill="#ebebeb"/>
        <path id="Path_19" data-name="Path 19" d="M124.71,71.14a2,2,0,1,1-2-2A2,2,0,0,1,124.71,71.14Z" fill="#e0e0e0"/>
        <rect id="Rectangle_29" data-name="Rectangle 29" width="1.26" height="28.93" transform="translate(122.04 76.76)" fill="#e0e0e0"/>
      </g>
      <g id="freepik--Floor--inject-9">
        <path id="Path_20" data-name="Path 20" d="M464,478.81c0,.15-95.82.26-214,.26S36,479,36,478.81s95.8-.26,214-.26S464,478.67,464,478.81Z" fill="#263238"/>
      </g>
      <g id="freepik--Character--inject-9">
        <rect id="Rectangle_30" data-name="Rectangle 30" width="290.21" height="9.29" transform="translate(84.27 239.3)" fill="#e0e0e0"/>
        <path id="Path_21" data-name="Path 21" d="M110.6,479.29l-9.42-.04V247.37h9.42Z" fill="#e0e0e0"/>
        <path id="Path_22" data-name="Path 22" d="M360.68,479.27h-9.51l.09-231.9h9.42Z" fill="#e0e0e0"/>
        <path id="Path_23" data-name="Path 23" d="M196.73,153.86s51.8,54.27,50.89,66.32-12.51,14.65-16.29,14.18-32.27-32.18-32.27-32.18Z" fill="#ff725e"/>
        <g id="Group_1" data-name="Group 1" opacity="0.4">
          <path id="Path_24" data-name="Path 24" d="M196.73,153.86s51.8,54.27,50.89,66.32-12.51,14.65-16.29,14.18-32.27-32.18-32.27-32.18Z"/>
        </g>
        <path id="Path_25" data-name="Path 25" d="M224.33,421.98l14.05,46.99,15.78-8.57-8.97-43.02Z" fill="#ffbe9d"/>
        <path id="Path_26" data-name="Path 26" d="M252.23,439.72,257.06,462s24.24,2.56,25.53,6.58L239.8,479.47l-9-34.35Z" fill="#ff725e"/>
        <path id="Path_27" data-name="Path 27" d="M243.36,463.49a1.8,1.8,0,0,0-.7,2.3,1.72,1.72,0,0,0,2.27.71,1.9,1.9,0,0,0,.73-2.44,1.8,1.8,0,0,0-2.45-.48" fill="#e0e0e0"/>
        <g id="Group_2" data-name="Group 2" opacity="0.4">
          <path id="Path_28" data-name="Path 28" d="M239.8,479.47,239,476l41.32-9.17s2.11.35,2.24,1.74Z"/>
        </g>
        <path id="Path_29" data-name="Path 29" d="M257.7,461.57c.05.21-1,.57-1.83,1.51s-1.18,1.95-1.39,1.91-.21-1.32.84-2.43S257.7,461.37,257.7,461.57Z" fill="#263238"/>
        <path id="Path_30" data-name="Path 30" d="M262.66,462.28c.1.19-.71.78-1.2,1.84s-.45,2.05-.66,2.1-.64-1.11,0-2.42S262.61,462.08,262.66,462.28Z" fill="#263238"/>
        <path id="Path_31" data-name="Path 31" d="M266.58,467c-.18.09-.73-.88-.49-2.16s1.11-2,1.24-1.83-.32.92-.5,2S266.79,466.93,266.58,467Z" fill="#263238"/>
        <path id="Path_32" data-name="Path 32" d="M256,456.62c0,.22-1.08.17-2.24.55s-2,1-2.14.84.54-1.12,1.92-1.55S256.1,456.43,256,456.62Z" fill="#263238"/>
        <path id="Path_33" data-name="Path 33" d="M255,452.15a4.1,4.1,0,0,1-2.15.54,9.85,9.85,0,0,1-2.42-.12,8.273,8.273,0,0,1-1.39-.34,2.63,2.63,0,0,1-.78-.33.94.94,0,0,1-.38-1.09,1.17,1.17,0,0,1,.79-.71,2.941,2.941,0,0,1,.84-.1,8.3,8.3,0,0,1,1.44.12,7.621,7.621,0,0,1,2.31.79c1.23.67,1.77,1.36,1.71,1.42s-.73-.44-1.93-.94a9.119,9.119,0,0,0-2.19-.59,8.254,8.254,0,0,0-1.33-.06c-.48,0-.87.09-.93.32s0,.12.11.23a2.05,2.05,0,0,0,.57.25,11.321,11.321,0,0,0,1.29.35,12.729,12.729,0,0,0,2.28.27A16.875,16.875,0,0,1,255,452.15Z" fill="#263238"/>
        <path id="Path_34" data-name="Path 34" d="M254.78,452.52c-.06.05-.67-.59-1.09-1.92a7.11,7.11,0,0,1-.31-2.42,7.569,7.569,0,0,1,.21-1.45,1.86,1.86,0,0,1,1.1-1.43,1,1,0,0,1,1,.37,2.941,2.941,0,0,1,.42.73,4.561,4.561,0,0,1,.37,1.45,5,5,0,0,1-.35,2.44c-.55,1.33-1.36,1.8-1.39,1.73a17.7,17.7,0,0,0,.89-1.9,5.14,5.14,0,0,0,.17-2.19,4.659,4.659,0,0,0-.36-1.23c-.18-.44-.45-.76-.6-.67a1.65,1.65,0,0,0-.57.89,6.883,6.883,0,0,0-.24,1.3,7.93,7.93,0,0,0,.13,2.24C254.46,451.74,254.89,452.46,254.78,452.52Z" fill="#263238"/>
        <path id="Path_35" data-name="Path 35" d="M186.2,288c.52,2.08,37.2,151.75,37.2,151.75l33.31-10.06-31.45-151.6Z" fill="#263238"/>
        <path id="Path_36" data-name="Path 36" d="M181.29,96.75l-5.82,44.72a13.42,13.42,0,0,0,12.23,15.1h0a13.42,13.42,0,0,0,14.38-11.66c.43-3.37.8-6.17.87-6.52,0,0,11.53.42,13.81-10.74,1.11-5.4,2.48-16.69,3.61-26.92a21.22,21.22,0,0,0-17.1-23.15l-1.08-.21C190.42,75.81,182.53,84.94,181.29,96.75Z" fill="#ffbe9d"/>
        <path id="Path_37" data-name="Path 37" d="M203,138.24a26.56,26.56,0,0,1-13.79-7s1.9,8.71,13.26,9.85Z" fill="#eb996e"/>
        <path id="Path_38" data-name="Path 38" d="M217.17,107.05a1.63,1.63,0,0,1-1.85,1.31A1.56,1.56,0,0,1,214,106.6a1.62,1.62,0,0,1,1.85-1.31,1.56,1.56,0,0,1,1.32,1.76Z" fill="#263238"/>
        <path id="Path_39" data-name="Path 39" d="M217.26,105.12c-.23.17-1.27-1-3-1.28s-3.15.29-3.29,0,.2-.45.82-.74a4.53,4.53,0,0,1,2.69-.29,4.21,4.21,0,0,1,2.33,1.28C217.27,104.64,217.38,105.05,217.26,105.12Z" fill="#263238"/>
        <path id="Path_40" data-name="Path 40" d="M199.88,104.59a1.64,1.64,0,0,1-1.86,1.32,1.56,1.56,0,0,1-1.37-1.76,1.63,1.63,0,0,1,1.85-1.31,1.56,1.56,0,0,1,1.38,1.75Z" fill="#263238"/>
        <path id="Path_41" data-name="Path 41" d="M200.07,102.42c-.24.17-1.28-1-3-1.28s-3.15.29-3.3,0,.2-.44.83-.74a4.49,4.49,0,0,1,2.68-.29,4.31,4.31,0,0,1,2.34,1.28C200.08,101.94,200.19,102.35,200.07,102.42Z" fill="#263238"/>
        <path id="Path_42" data-name="Path 42" d="M203.74,116.78a11.51,11.51,0,0,1,2.89,0c.44,0,.88,0,1-.26a2.32,2.32,0,0,0,0-1.35l-.66-3.6c-.89-5.1-1.44-9.27-1.24-9.3s1.1,4.08,2,9.18c.2,1.26.4,2.46.59,3.61a2.57,2.57,0,0,1-.1,1.76,1.14,1.14,0,0,1-.85.51,3.6,3.6,0,0,1-.76,0A12.54,12.54,0,0,1,203.74,116.78Z" fill="#263238"/>
        <path id="Path_43" data-name="Path 43" d="M201.25,98.92c-.26.44-1.93-.11-4-.26s-3.8.09-4-.38c-.09-.22.28-.61,1-.93a6.59,6.59,0,0,1,3.1-.46,6.67,6.67,0,0,1,3,.94C201.06,98.28,201.37,98.71,201.25,98.92Z" fill="#263238"/>
        <path id="Path_44" data-name="Path 44" d="M218.06,98.87c-.38.33-1.49-.31-2.91-.6s-2.68-.24-2.88-.7c-.08-.22.18-.58.78-.85a4.31,4.31,0,0,1,4.66,1C218.14,98.27,218.23,98.7,218.06,98.87Z" fill="#263238"/>
        <path id="Path_45" data-name="Path 45" d="M180.62,105.21c-.18-.12-7.25-3.75-8.48,3.94s6.75,7.34,6.8,7.12S180.62,105.21,180.62,105.21Z" fill="#ffbe9d"/>
        <path id="Path_46" data-name="Path 46" d="M177.05,113a2.409,2.409,0,0,1-.39.14,1.3,1.3,0,0,1-1-.14c-.77-.42-1.25-1.82-1.06-3.22a4.46,4.46,0,0,1,.68-1.86,1.54,1.54,0,0,1,1.17-.86.69.69,0,0,1,.73.49.662.662,0,0,1,0,.4c0,.02.18-.11.17-.43a.9.9,0,0,0-.23-.54,1.09,1.09,0,0,0-.71-.31,1.92,1.92,0,0,0-1.59,1,4.59,4.59,0,0,0-.8,2.07c-.2,1.56.36,3.14,1.42,3.64a1.5,1.5,0,0,0,1.26,0C177,113.17,177.08,113,177.05,113Z" fill="#eb996e"/>
        <path id="Path_47" data-name="Path 47" d="M176.41,104.13a4.1,4.1,0,0,1,3.32,2.6c.29,1.18.16,2.44.44,3.63s1.22,2.39,2.44,2.34a2.41,2.41,0,0,0,1.93-1.44,6.63,6.63,0,0,0,.5-2.46c.23-3.66.16-7.35.71-11a18.74,18.74,0,0,1,4.26-10c2.48-2.7,6.38-4.28,9.91-3.3,2.34.64,4.28,2.3,6.58,3.09a9.51,9.51,0,0,0,8.26-1.1,2.559,2.559,0,0,1,.42-.22,2.09,2.09,0,0,0,1.19-2.25,1.92,1.92,0,0,0-.31-.82c-3.85-5.2-12.06-8-18.54-7.63s-13.13,3.62-16.91,8.91-4.54,13.5-4.2,19.65" fill="#263238"/>
        <path id="Path_48" data-name="Path 48" d="M207.2,122a12.14,12.14,0,0,1-4.7-1.73,6.09,6.09,0,0,1,2.44.62A6.16,6.16,0,0,1,207.2,122Z" fill="#263238"/>
        <path id="Path_49" data-name="Path 49" d="M215.56,130.62a4.89,4.89,0,0,1-.95,2.08,11.67,11.67,0,0,1-4.18,3.6,19.7,19.7,0,0,1-5.21,1.78,7.93,7.93,0,0,1-2.26.29,13.573,13.573,0,0,1,2.17-.65,25.53,25.53,0,0,0,5.06-1.88,12.8,12.8,0,0,0,4.12-3.36C215.16,131.39,215.48,130.58,215.56,130.62Z" fill="#eb996e"/>
        <path id="Path_50" data-name="Path 50" d="M210.14,136.33c-2.71,1.35-4.7,5-6.42,7.42a5.91,5.91,0,0,0-1.22,2.39,5.55,5.55,0,0,0,.49,2.79c.49,1.33,1,2.64,1.6,3.94.16.38.37.79.77.88s.92-.38,1.13-.85a13.829,13.829,0,0,0,.63-3.76A3.91,3.91,0,0,1,209,146" fill="#eb996e"/>
        <path id="Path_51" data-name="Path 51" d="M214.42,146.31l-2.63-2a.79.79,0,0,0-1.1.09l-1.4,1.62h0l.74,4.09c.86,5.25-3,4.43-3,4.43l-.31-1-1.71-6.4c-.34-3.06-.1-3.42,1.39-5.63l3.26-4.66a2.62,2.62,0,0,1,3.09-1c4.68,1.73,14.77,4.85,15.91,8.82,2.07,7.22,3.74,25.65,3.77,26h0L218.14,172h0l.07-12.29a6.41,6.41,0,0,1-2.68-3.38c-.6-2.17-1.11-10-1.11-10" fill="#ffbe9d"/>
        <path id="Path_52" data-name="Path 52" d="M224.29,148.72a2.677,2.677,0,0,1-.54.58,4.57,4.57,0,0,1-1.94,1,3.53,3.53,0,0,1-1.55,0,2.77,2.77,0,0,1-1.52-1c-.84-1-1-2.42-1.7-3.45a6.69,6.69,0,0,0-1.47-1.21,14.22,14.22,0,0,0-1.6-.89,2.88,2.88,0,0,0-1.46-.41,3,3,0,0,0-1.16.69c-1.29,1.19-2,2.09-2.07,2s.13-.25.43-.66a14.4,14.4,0,0,1,1.39-1.63,3.25,3.25,0,0,1,1.32-.83,1.27,1.27,0,0,1,.48,0,3.152,3.152,0,0,1,.44.11,5.259,5.259,0,0,1,.83.32,11.742,11.742,0,0,1,1.67.89,6.63,6.63,0,0,1,1.62,1.33c.84,1.22.94,2.61,1.65,3.46a2.73,2.73,0,0,0,2.63.9,5,5,0,0,0,1.89-.78C224,148.86,224.26,148.69,224.29,148.72Z" fill="#eb996e"/>
        <path id="Path_53" data-name="Path 53" d="M222.71,153.06a18.38,18.38,0,0,1-7.79-2.25,24.09,24.09,0,0,1,3.92,1.06,24.593,24.593,0,0,1,3.87,1.19Z" fill="#eb996e"/>
        <path id="Path_54" data-name="Path 54" d="M217.64,146.37c-3.74,0-4.18-.17-8.41.06a6.139,6.139,0,0,0-1.86.3,2,2,0,0,0-1.28,1.3c-.29,1.16.88,2.21,2,2.48s2.4.06,3.56.33a7.82,7.82,0,0,1,4.69,2.75c2.44,3.45,5,1.79,6.66,3l4.36-2.76-1.54-6.44-8.22-1" fill="#ffbe9d"/>
        <path id="Path_55" data-name="Path 55" d="M223.42,156.62a4.751,4.751,0,0,0-1.19-.37,10.89,10.89,0,0,1-3.46-.61,5.58,5.58,0,0,1-1.9-1.57,6.541,6.541,0,0,0-1.93-1.84,9.83,9.83,0,0,0-2.74-1.1,24.143,24.143,0,0,0-3.23-.28,3.12,3.12,0,0,1-2.73-2,1.76,1.76,0,0,1,.42-1.68,2.76,2.76,0,0,1,1.39-.81,17.872,17.872,0,0,1,2.8-.23h2.41c1.48,0,2.66.1,3.48.14a6.66,6.66,0,0,1,1.28.1,5.09,5.09,0,0,1-1.28.1h-3.48a22.4,22.4,0,0,0-2.39.09,16.77,16.77,0,0,0-2.7.26c-.85.18-1.72,1-1.44,1.88a2.63,2.63,0,0,0,2.31,1.6,23,23,0,0,1,3.28.3,10,10,0,0,1,2.88,1.2,6.72,6.72,0,0,1,2,2,5.28,5.28,0,0,0,1.73,1.51,12.391,12.391,0,0,0,3.33.74,2.6,2.6,0,0,1,.91.35C223.35,156.53,223.43,156.6,223.42,156.62Z" fill="#eb996e"/>
        <path id="Path_56" data-name="Path 56" d="M217.22,143.45c0-.06.27-.11.66.06a1.71,1.71,0,0,1,.4,2.81c-.32.28-.59.3-.62.24s.16-.2.35-.48a1.8,1.8,0,0,0,.31-1.2,1.7,1.7,0,0,0-.63-1C217.43,143.61,217.21,143.53,217.22,143.45Z" fill="#eb996e"/>
        <path id="Path_57" data-name="Path 57" d="M225.59,311.08l-18.24,45.53,17.7,3.11,19.74-39.27Z" fill="#ffbe9d"/>
        <path id="Path_58" data-name="Path 58" d="M236.39,342.32l-10,20.43s17.38,17.07,15.89,21l-40.3-18.07,14.35-32.46Z" fill="#ff725e"/>
        <path id="Path_59" data-name="Path 59" d="M214.67,355.42a1.79,1.79,0,0,0-2,1.36,1.73,1.73,0,0,0,1.33,2,1.9,1.9,0,0,0,2.09-1.46,1.79,1.79,0,0,0-1.62-1.9" fill="#e0e0e0"/>
        <g id="Group_3" data-name="Group 3" opacity="0.4">
          <path id="Path_60" data-name="Path 60" d="M201.94,365.71l1.45-3.27L241.57,381s1.44,1.58.67,2.76Z"/>
        </g>
        <path id="Path_61" data-name="Path 61" d="M227.09,362.83c-.09.2-1.12-.15-2.37.05s-2.14.79-2.28.63.65-1.16,2.17-1.38S227.21,362.67,227.09,362.83Z" fill="#263238"/>
        <path id="Path_62" data-name="Path 62" d="M230.53,366.48c0,.21-1,.16-2.08.69s-1.63,1.33-1.82,1.23.18-1.26,1.49-1.9S230.61,366.29,230.53,366.48Z" fill="#263238"/>
        <path id="Path_63" data-name="Path 63" d="M230.67,372.61c-.2,0,0-1.14,1-2s2.11-.87,2.12-.67-.82.52-1.62,1.23S230.87,372.68,230.67,372.61Z" fill="#263238"/>
        <path id="Path_64" data-name="Path 64" d="M228.86,357.93c-.16.14-.94-.54-2.09-1s-2.17-.46-2.19-.68,1.12-.54,2.46,0S229,357.81,228.86,357.93Z" fill="#263238"/>
        <path id="Path_65" data-name="Path 65" d="M230.82,353.77a4.22,4.22,0,0,1-2-.92,9.738,9.738,0,0,1-1.82-1.59,9.528,9.528,0,0,1-.88-1.14,2.5,2.5,0,0,1-.4-.75.92.92,0,0,1,.38-1.08,1.18,1.18,0,0,1,1.06-.07,3.109,3.109,0,0,1,.71.45,8.533,8.533,0,0,1,1.07,1,7.81,7.81,0,0,1,1.31,2.06,3.59,3.59,0,0,1,.45,2.17c-.12,0-.3-.8-.93-1.94a8.441,8.441,0,0,0-1.34-1.82,9.665,9.665,0,0,0-1-.88c-.38-.3-.74-.47-.93-.32s-.09.08-.06.24a2.11,2.11,0,0,0,.29.55,13.269,13.269,0,0,0,.79,1.09,13,13,0,0,0,1.62,1.62C230.13,353.27,230.87,353.66,230.82,353.77Z" fill="#263238"/>
        <path id="Path_66" data-name="Path 66" d="M230.43,353.93a3.51,3.51,0,0,1,.34-2.18,7.1,7.1,0,0,1,1.27-2.09,7.26,7.26,0,0,1,1.06-1,1.85,1.85,0,0,1,1.75-.44,1.07,1.07,0,0,1,.59.94,3,3,0,0,1-.13.84,4.93,4.93,0,0,1-.6,1.36,5.3,5.3,0,0,1-1.8,1.7,2.87,2.87,0,0,1-2.17.48,19.417,19.417,0,0,0,1.89-.93,5.24,5.24,0,0,0,1.49-1.62,4.78,4.78,0,0,0,.48-1.18c.13-.45.12-.87-.06-.9a1.31,1.31,0,0,0-1,.34,7.687,7.687,0,0,0-1,.87,8.062,8.062,0,0,0-1.29,1.84C230.67,353.12,230.55,354,230.43,353.93Z" fill="#263238"/>
        <path id="Path_67" data-name="Path 67" d="M190.68,256.48,246.84,229a24.89,24.89,0,0,1,29.24,5.47h0a24.9,24.9,0,0,1,4.09,27.77l-37.26,76.62L211.74,329l27.41-58.4-30.84,23.5a48.46,48.46,0,0,1-28.95,9.9l-8.08.07a38.77,38.77,0,0,1-32.33-20h0Z" fill="#263238"/>
        <path id="Path_68" data-name="Path 68" d="M242.91,338.84a1.789,1.789,0,0,1-.58-.15l-1.65-.49-6.29-1.92-22.72-7.07-.22-.07.1-.22c5.5-11.76,12.36-26.41,19.77-42.26,2.63-5.58,5.18-11,7.6-16.16l.38.31c-14.14,10.54-26.8,19.29-36.14,25.05a97.937,97.937,0,0,1-11.3,6.18,17.669,17.669,0,0,1-3.28,1.11,4.76,4.76,0,0,1-.89.12h-.3a4.724,4.724,0,0,0,1.17-.22,19.8,19.8,0,0,0,3.23-1.18,104.88,104.88,0,0,0,11.2-6.3c9.28-5.83,21.89-14.63,36-25.17l.82-.61-.43.92c-2.42,5.15-5,10.58-7.58,16.16-7.45,15.84-14.34,30.47-19.87,42.22l-.13-.29,22.66,7.24,6.26,2,1.63.55Z" fill="#455a64"/>
        <path id="Path_69" data-name="Path 69" d="M249.71,257.92a32.88,32.88,0,0,0-6.47,5.57,32.35,32.35,0,0,0-4.35,7.35,8.32,8.32,0,0,1,.74-2.43,20.83,20.83,0,0,1,7.81-9.33,8.19,8.19,0,0,1,2.27-1.16Z" fill="#455a64"/>
        <path id="Path_70" data-name="Path 70" d="M130.65,366.34h80.78a2.07,2.07,0,0,1,2.08,2h0a2.09,2.09,0,0,1-2.08,2.14H130.65a2.08,2.08,0,0,1-2.07-2.08h0a2.07,2.07,0,0,1,2.07-2.06Z" fill="#e0e0e0"/>
        <path id="Path_71" data-name="Path 71" d="M200.81,314.91H137.62a12.24,12.24,0,0,1,12.24-12.24h38.7a12.24,12.24,0,0,1,12.25,12.24Z" fill="#455a64"/>
        <rect id="Rectangle_31" data-name="Rectangle 31" width="66.66" height="3.71" transform="translate(136.13 314.91)" fill="#e0e0e0"/>
        <path id="Path_72" data-name="Path 72" d="M142.06,318.63l-16.3,160.66h3.84l19.89-160.66Z" fill="#e0e0e0"/>
        <path id="Path_73" data-name="Path 73" d="M196.36,318.63l16.29,160.58-3.83.02L188.94,318.69Z" fill="#e0e0e0"/>
        <path id="Path_74" data-name="Path 74" d="M173.66,317.21l-2.75,162.07h-3.93l-1.72-162.51Z" fill="#e0e0e0"/>
        <path id="Path_75" data-name="Path 75" d="M172.38,141.07l3.96-12.02,26.13,12.09-1.2,12.72-13.02,3.7-12.78-7.83Z" fill="#ff725e"/>
        <path id="Path_76" data-name="Path 76" d="M139,284.1a8.68,8.68,0,0,1-3.66-7.29c0-4.82,4.3-5.22,4.44-7.89,1.43-27.55,4.55-84.62,6.61-102.63,2.59-22.7,29.19-27.49,29.19-27.49l21.95,5.39v1.66c7.6,9.77,10.89,24.5,10.9,36.88l-1,65.58Z" fill="#ff725e"/>
        <path id="Path_77" data-name="Path 77" d="M163.63,247.37a7.462,7.462,0,0,1-.82,1.12c-.54.7-1.37,1.69-2.41,2.89-2.08,2.41-5.07,5.64-8.59,9s-6.88,6.2-9.38,8.16c-1.26,1-2.28,1.76-3,2.28a6.481,6.481,0,0,1-1.16.76,6.779,6.779,0,0,1,1-.92l2.89-2.4c2.44-2,5.76-4.91,9.26-8.26s6.53-6.52,8.68-8.86l2.53-2.79a6.67,6.67,0,0,1,1-.98Z" fill="#263238"/>
        <g id="Group_4" data-name="Group 4" opacity="0.2">
          <path id="Path_78" data-name="Path 78" d="M142,268.83c.08-4.15,3.19-7.57,6.27-10.36a101.339,101.339,0,0,1,11.46-9c.2,2-1.18,3.83-2.52,5.37a108.09,108.09,0,0,1-14.88,14.05"/>
        </g>
        <path id="Path_79" data-name="Path 79" d="M180.43,139.08a12.209,12.209,0,0,1,.81-3.49,12.38,12.38,0,0,1,1.3-3.33,12.209,12.209,0,0,1-.81,3.49A12.779,12.779,0,0,1,180.43,139.08Z" fill="#263238"/>
        <path id="Path_80" data-name="Path 80" d="M190.62,135.67a11.7,11.7,0,0,1-.53,3.47,12.079,12.079,0,0,1-1,3.35,11.74,11.74,0,0,1,.53-3.47A12.08,12.08,0,0,1,190.62,135.67Z" fill="#263238"/>
        <path id="Path_81" data-name="Path 81" d="M198.21,139.46a13.659,13.659,0,0,1-.27,3.15,14,14,0,0,1-.46,3.14,7.62,7.62,0,0,1,0-3.2,7.75,7.75,0,0,1,.73-3.09Z" fill="#263238"/>
        <path id="Path_82" data-name="Path 82" d="M171.83,203.64a4.391,4.391,0,0,1-1.1.08h-3c-2.55,0-6.07,0-10-.11s-7.42-.17-10-.27c-1.28,0-2.31-.09-3-.14a4.24,4.24,0,0,1-1.11-.12,5.351,5.351,0,0,1,1.11-.08h3c2.55,0,6.07,0,10,.11s7.42.16,10,.26l3,.14A4.11,4.11,0,0,1,171.83,203.64Z" fill="#fafafa"/>
        <path id="Path_83" data-name="Path 83" d="M166.26,195.25c0,.15-5,.15-11.2,0s-11.18-.35-11.18-.5,5-.15,11.19,0S166.26,195.11,166.26,195.25Z" fill="#fafafa"/>
        <g id="Group_5" data-name="Group 5" opacity="0.2">
          <path id="Path_84" data-name="Path 84" d="M156.75,182.32c8,17.42,17.78,33.06,29.15,48.48,2.93,4,6.07,8,10.3,10.49s7,1.83,11.27-.72c-4.73-1.51-6-2-10-4.89a47.84,47.84,0,0,1-10.09-10.77c-10-13.76-19.76-27.93-29.78-41.69"/>
        </g>
        <path id="Path_85" data-name="Path 85" d="M239.92,207.09a9.72,9.72,0,0,1,.93-3.33,3.3,3.3,0,0,1,2.76-1.84,2,2,0,0,1,2,2.27,5,5,0,0,1-1.11,1.7c-1.27,1.74-1.15,4.09-1.14,6.24s-.26,4.61-2,5.9" fill="#ffbe9d"/>
        <path id="Path_86" data-name="Path 86" d="M160.58,156.89a18.16,18.16,0,0,0-4.06,25.87l36.54,48.12a27.39,27.39,0,0,0,33.75,7.91h0a27.4,27.4,0,0,0,15.3-26.07l-8.05-50.6-19.66,1.22,1.86,41.21-30.42-43.23A18.17,18.17,0,0,0,160.58,156.89Z" fill="#ff725e"/>
        <path id="Path_87" data-name="Path 87" d="M239.34,227.07c-4.84-1.13-5.66-2-10.49-3.09-1.44-.34-3.29-1.27-2.65-2.8a2.07,2.07,0,0,1,2.06-1.2c1.88.16,4.91,1.28,6.73,1.45.45,0,.44-.41.24-.72a57.083,57.083,0,0,0-9-1.94,2.22,2.22,0,0,1-1.11-3.92,3.47,3.47,0,0,1,1.29-.37c1.94.28,1.94.28,4,.64,5.79,1,5-.14,5-.14,0-.44-6.59-1.08-10-1.49a2.94,2.94,0,0,1-2-.76,1.92,1.92,0,0,1,.23-2.41,3.38,3.38,0,0,1,2.33-1.17c3.77-.07,16.15,1.31,16.15,1.31s1.62,2.2,1.12,6.71C242.73,222.11,239.34,227.07,239.34,227.07Z" fill="#ffbe9d"/>
        <path id="Path_88" data-name="Path 88" d="M221.83,240.57a2.549,2.549,0,0,0-.52.08l-1.54.16c-1.36.12-3.36.31-6,.34a28.94,28.94,0,0,1-9.32-1.29,26.27,26.27,0,0,1-10.29-7,136.586,136.586,0,0,1-9.65-11.64c-3.29-4.33-6.73-9-10.31-13.95s-7.28-10.18-11.09-15.63l-5.77-8.33c-.49-.71-1-1.42-1.46-2.14l-.7-1.11a10,10,0,0,1-.63-1.16,17.69,17.69,0,0,1-1.64-5.05,17.21,17.21,0,0,1-.1-5.31,20.773,20.773,0,0,1,.5-2.59,21.212,21.212,0,0,1,.89-2.46,19.29,19.29,0,0,1,1.2-2.3,18.561,18.561,0,0,1,1.53-2.08,17.869,17.869,0,0,1,3.77-3.4,19.249,19.249,0,0,1,4.48-2.21,18.591,18.591,0,0,1,4.82-.87,18.31,18.31,0,0,1,9.19,2,18.68,18.68,0,0,1,6.71,5.92q2.48,3.56,4.79,6.92l8.6,12.42,12.42,18,3.36,4.91c.37.55.65,1,.86,1.28l.28.45a5.069,5.069,0,0,1-.33-.42l-.9-1.25L211.6,198,199,180.11l-8.65-12.39-4.82-6.9a18.25,18.25,0,0,0-6.55-5.75,17.89,17.89,0,0,0-13.63-1,18.779,18.779,0,0,0-4.35,2.16,16.9,16.9,0,0,0-3.67,3.3,18.356,18.356,0,0,0-1.48,2,17.6,17.6,0,0,0-1.16,2.24,18.44,18.44,0,0,0-.87,2.39,19.341,19.341,0,0,0-.49,2.52,17.68,17.68,0,0,0,1.7,10,36.5,36.5,0,0,0,2.74,4.35l5.77,8.34c3.8,5.45,7.5,10.68,11.06,15.63s7,9.64,10.26,14a139.3,139.3,0,0,0,9.58,11.65,26.19,26.19,0,0,0,10.11,7,29.131,29.131,0,0,0,9.23,1.36c2.58,0,4.58-.16,5.94-.25l1.54-.1A2.9,2.9,0,0,1,221.83,240.57Z" fill="#263238"/>
        <path id="Path_89" data-name="Path 89" d="M218.35,219.65a21.24,21.24,0,0,0-2.52-15.82,7.21,7.21,0,0,1,1.41,2,17.06,17.06,0,0,1,1.91,5.59,17.25,17.25,0,0,1-.08,5.9,7.24,7.24,0,0,1-.72,2.33Z" fill="#263238"/>
        <path id="Path_90" data-name="Path 90" d="M218.84,168.71a5.37,5.37,0,0,1-.7-2.7,5.43,5.43,0,0,1,.24-2.78,12.4,12.4,0,0,1,.28,2.74,12.17,12.17,0,0,1,.18,2.74Z" fill="#263238"/>
        <path id="Path_91" data-name="Path 91" d="M224.26,168.21a8.12,8.12,0,0,1-.7-5.37,11.711,11.711,0,0,1,.4,2.68,12.059,12.059,0,0,1,.3,2.69Z" fill="#263238"/>
        <path id="Path_92" data-name="Path 92" d="M229.63,167a4.75,4.75,0,0,1-.38-2.2,4.94,4.94,0,0,1,.14-2.23,4.91,4.91,0,0,1,.38,2.2,5.11,5.11,0,0,1-.14,2.23Z" fill="#263238"/>
        <path id="Path_93" data-name="Path 93" d="M196.52,178.19c.08.11-6.12,4.55-13.85,9.91s-14.06,9.61-14.15,9.49,6.12-4.56,13.85-9.92S196.44,178.07,196.52,178.19Z" fill="#fafafa"/>
        <path id="Path_94" data-name="Path 94" d="M191.68,170.93a6.821,6.821,0,0,1-1.09.84l-3.05,2.14c-2.59,1.8-6.14,4.32-10,7.17s-7.3,5.53-9.78,7.47c-1.18.93-2.16,1.7-2.94,2.3a6.569,6.569,0,0,1-1.12.8,6.579,6.579,0,0,1,1-1c.66-.59,1.63-1.42,2.84-2.43,2.42-2,5.83-4.74,9.7-7.6s7.46-5.34,10.1-7.07c1.32-.86,2.39-1.55,3.15-2a6.769,6.769,0,0,1,1.19-.62Z" fill="#fafafa"/>
      </g>
      <g id="freepik--Plant--inject-9">
        <rect id="Rectangle_32" data-name="Rectangle 32" width="68.04" height="9.35" transform="translate(363.77 421.65)" fill="#263238"/>
        <path id="Path_95" data-name="Path 95" d="M431.92,431.11H363.65v-9.58h68.27Zm-68-.23h67.81v-9.12H363.88Z" fill="#263238"/>
        <path id="Path_96" data-name="Path 96" d="M370.07,427.88l9.8,48.32h36.24l9.46-45.2Z" fill="#263238"/>
        <path id="Path_97" data-name="Path 97" d="M370.07,471.63l5.23,7.18h44.05l6.22-7.18Z" fill="#455a64"/>
        <path id="Path_98" data-name="Path 98" d="M395.23,429.3c-.13,0-.3-22.39-.38-50s0-50,.1-50,.31,22.38.38,50S395.37,429.29,395.23,429.3Z" fill="#263238"/>
        <path id="Path_99" data-name="Path 99" d="M410.39,373.28a3.166,3.166,0,0,1-.18.52l-.61,1.45c-.14.32-.29.66-.45,1l-.45,1.27c-.16.46-.34.95-.52,1.46s-.33,1.08-.51,1.66a68.758,68.758,0,0,0-1.9,8.33,101.042,101.042,0,0,0-1,10.42,142.312,142.312,0,0,0,.53,19c.22,2.43.44,4.39.61,5.75.07.63.12,1.15.17,1.56a2.079,2.079,0,0,1,0,.55,4,4,0,0,1-.12-.53c-.07-.41-.15-.93-.26-1.56-.22-1.35-.49-3.31-.76-5.74a126.389,126.389,0,0,1-.68-19.08,96,96,0,0,1,1.1-10.47,63.542,63.542,0,0,1,2-8.36c.19-.58.34-1.14.54-1.66s.38-1,.56-1.45l.49-1.27c.17-.38.34-.72.49-1l.69-1.41A2,2,0,0,1,410.39,373.28Z" fill="#263238"/>
        <path id="Path_100" data-name="Path 100" d="M408.65,355.17a5.251,5.251,0,0,1-.22.74l-.71,2.08c-.15.46-.33,1-.52,1.5s-.35,1.16-.54,1.81c-.4,1.3-.86,2.77-1.27,4.42l-.69,2.59c-.2.91-.41,1.85-.63,2.83-.48,1.95-.82,4.07-1.26,6.28-.75,4.44-1.41,9.36-1.87,14.54s-.61,10.15-.68,14.66,0,8.57.23,12c.06,1.71.17,3.25.26,4.6s.16,2.52.25,3.47.12,1.64.16,2.19a3.732,3.732,0,0,1,0,.77,3.923,3.923,0,0,1-.12-.76c-.07-.54-.15-1.27-.26-2.18s-.23-2.12-.33-3.47-.25-2.89-.33-4.6c-.23-3.41-.32-7.48-.34-12s.22-9.5.65-14.7,1.13-10.13,1.91-14.58c.45-2.22.81-4.34,1.3-6.29.23-1,.46-1.92.67-2.83l.72-2.59c.43-1.65.91-3.12,1.34-4.41.21-.64.4-1.24.58-1.8l.57-1.49.79-2.05A4.759,4.759,0,0,1,408.65,355.17Z" fill="#263238"/>
        <path id="Path_101" data-name="Path 101" d="M390.93,433.26a1.14,1.14,0,0,1,0-.27,3.344,3.344,0,0,0-.07-.77c0-.71-.11-1.7-.2-3-.16-2.61-.39-6.33-.68-10.9-.59-9.21-1.44-21.93-3-35.91-.79-7-1.71-13.63-2.66-19.65-.51-3-1-5.87-1.49-8.53s-1-5.14-1.47-7.39-.95-4.29-1.35-6.08-.78-3.32-1.09-4.57l-.71-2.88c-.07-.31-.13-.56-.17-.75a2,2,0,0,1-.05-.27,1.462,1.462,0,0,1,.1.25c.05.2.12.44.21.74l.8,2.87c.35,1.24.75,2.77,1.17,4.55s.95,3.8,1.42,6.06,1,4.73,1.53,7.4,1,5.52,1.54,8.53c1,6,1.91,12.67,2.7,19.67,1.55,14,2.35,26.72,2.85,35.94.25,4.6.43,8.33.53,10.91.05,1.26.09,2.25.11,3v.77A1.168,1.168,0,0,1,390.93,433.26Z" fill="#263238"/>
        <path id="Path_102" data-name="Path 102" d="M394.68,340.07c-.3-3.17-3.5-5.57-6.69-5.6a10.54,10.54,0,0,0-8.1,4.4,25.341,25.341,0,0,0-3.9,8.66c-2.15,7.47-3.32,15.32-2.4,23s4.05,15.31,9.59,20.77c.9.88,2.06,1.77,3.3,1.51a4,4,0,0,0,1.74-1.08A51.53,51.53,0,0,0,405,352.56c-.08-2.93-.47-6-2.09-8.43s-5.42-5-8.18-4.06" fill="#ff725e"/>
        <path id="Path_103" data-name="Path 103" d="M370.89,314.67l-4.48,8.12c-.11.19-.24.4-.46.42s-.41-.2-.54-.4l-11.86-18.2,2.73-1.55Z" fill="#ff725e"/>
        <g id="Group_6" data-name="Group 6" opacity="0.2">
          <path id="Path_104" data-name="Path 104" d="M370.89,314.67l-4.48,8.12c-.11.19-.24.4-.46.42s-.41-.2-.54-.4l-11.86-18.2,2.73-1.55Z"/>
        </g>
        <path id="Path_105" data-name="Path 105" d="M395,329.31l-40.5-23.87a1.93,1.93,0,0,1-1-1c-.16-.6.29-1.17.72-1.62a27.87,27.87,0,0,1,21.62-8.49,24.69,24.69,0,0,1,19.54,12.15c3.91,7,4,16.2-.44,22.83" fill="#ff725e"/>
        <path id="Path_106" data-name="Path 106" d="M360.33,297.82a2,2,0,0,1,.53-.07c.35,0,.86-.08,1.53-.07a29.784,29.784,0,0,1,5.61.44,32.79,32.79,0,0,1,26.18,23.69,29.944,29.944,0,0,1,1,5.55,10.776,10.776,0,0,1,.07,1.17,2.06,2.06,0,0,1-.32.89,6.541,6.541,0,0,0,.07-2,34.6,34.6,0,0,0-1.15-5.47,33,33,0,0,0-25.91-23.45,35.141,35.141,0,0,0-5.56-.6C361.06,297.84,360.33,297.86,360.33,297.82Z" fill="#263238"/>
        <path id="Path_107" data-name="Path 107" d="M389.47,312.83a9.559,9.559,0,0,1-2,.93c-1.29.51-3.09,1.16-5.11,1.8s-3.86,1.15-5.2,1.48a10.679,10.679,0,0,1-2.21.42,10.9,10.9,0,0,1,2.12-.76l5.15-1.6,5.13-1.66a11.2,11.2,0,0,1,2.12-.61Z" fill="#263238"/>
        <path id="Path_108" data-name="Path 108" d="M383.1,295.72a28.18,28.18,0,0,1,.23,9,28.806,28.806,0,0,1-.23-4.52A29.819,29.819,0,0,1,383.1,295.72Z" fill="#263238"/>
        <path id="Path_109" data-name="Path 109" d="M354.14,305a19,19,0,0,1,2.94-1c1.84-.57,4.4-1.28,7.25-2s5.46-1.22,7.36-1.55a19.17,19.17,0,0,1,3.08-.42,20.441,20.441,0,0,1-3,.76c-1.87.41-4.46,1-7.3,1.68s-5.42,1.35-7.27,1.83a20.788,20.788,0,0,1-3.06.7Z" fill="#263238"/>
        <path id="Path_110" data-name="Path 110" d="M377.89,333.19c-3.48-2.64-7.16-3.16-11.53-3a35.16,35.16,0,0,0-12.6,3.26c-6.83,3-13.24,7.39-17.31,13.62S331,361.56,334,368.36a3,3,0,0,0,1.39,1.67,3.29,3.29,0,0,0,2.28-.17c7.76-2.53,15.57-5.09,22.7-9.05s13.63-9.47,17.46-16.68a14.29,14.29,0,0,0,1.84-5.54,6.87,6.87,0,0,0-1.78-5.4" fill="#ff725e"/>
        <path id="Path_111" data-name="Path 111" d="M378,332.37a2.492,2.492,0,0,1-.55.23l-1.63.55-1.18.4c-.42.15-.88.34-1.37.53-1,.4-2.12.8-3.32,1.38l-1.91.87c-.65.3-1.31.67-2,1-1.41.69-2.83,1.57-4.34,2.47a68.409,68.409,0,0,0-17.12,15.06c-1.08,1.39-2.14,2.68-3,4-.44.65-.9,1.25-1.28,1.87s-.75,1.21-1.11,1.77c-.73,1.12-1.27,2.2-1.78,3.12-.26.47-.5.9-.71,1.3l-.54,1.12-.76,1.54a2.219,2.219,0,0,1-.3.52,3.859,3.859,0,0,1,.21-.56l.68-1.58.5-1.14c.2-.41.43-.85.68-1.32.49-.94,1-2,1.73-3.17.34-.58.71-1.18,1.08-1.8s.83-1.24,1.27-1.9a47.343,47.343,0,0,1,3-4,72.91,72.91,0,0,1,8-8.32,71.459,71.459,0,0,1,9.27-6.83c1.53-.89,3-1.77,4.39-2.45.71-.35,1.38-.71,2-1l1.93-.84c1.22-.57,2.37-.95,3.36-1.32.5-.18,1-.36,1.4-.5l1.19-.35,1.66-.48A2.61,2.61,0,0,1,378,332.37Z" fill="#263238"/>
        <path id="Path_112" data-name="Path 112" d="M350.77,347.09a79.869,79.869,0,0,1-8.46,2.72,84.678,84.678,0,0,1-8.6,2.27,81.2,81.2,0,0,1,8.46-2.73,81.372,81.372,0,0,1,8.6-2.26Z" fill="#263238"/>
        <path id="Path_113" data-name="Path 113" d="M350.43,365.76a12.418,12.418,0,0,1-.19-2.63c-.05-1.63-.05-3.89,0-6.38s.2-4.73.34-6.36a12.733,12.733,0,0,1,.33-2.62,14.5,14.5,0,0,1,0,2.64c-.06,1.79-.12,4-.2,6.36s-.11,4.57-.16,6.36a16.278,16.278,0,0,1-.12,2.63Z" fill="#263238"/>
        <path id="Path_114" data-name="Path 114" d="M366.42,357.61c-.13,0-.56-4.57-.95-10.22s-.6-10.26-.46-10.27.56,4.57.95,10.23S366.56,357.6,366.42,357.61Z" fill="#263238"/>
        <path id="Path_115" data-name="Path 115" d="M346.51,336.68a15,15,0,0,1,2.71-.08c1.67,0,4,.06,6.53.14s4.86.19,6.53.29a14.881,14.881,0,0,1,2.7.26,14.876,14.876,0,0,1-2.71.08c-1.67,0-4-.06-6.53-.14s-4.86-.19-6.53-.29a14.88,14.88,0,0,1-2.7-.26Z" fill="#263238"/>
        <path id="Path_116" data-name="Path 116" d="M384.91,392.4a2.5,2.5,0,0,1-.06-.54,13.465,13.465,0,0,0-.07-1.56c-.06-1.35-.07-3.31,0-5.73s.21-5.29.5-8.48.77-6.68,1.42-10.32,1.48-7.07,2.3-10.16,1.72-5.85,2.53-8.14,1.51-4.12,2-5.36l.62-1.44a2.681,2.681,0,0,1,.24-.49,2.219,2.219,0,0,1-.15.53c-.14.38-.32.86-.53,1.46-.48,1.27-1.13,3.12-1.9,5.41s-1.59,5.05-2.41,8.14-1.59,6.51-2.26,10.14S386,373,385.7,376.13s-.51,6-.6,8.46-.1,4.41-.1,5.71v1.56a2.1,2.1,0,0,1-.09.54Z" fill="#263238"/>
        <path id="Path_117" data-name="Path 117" d="M387.05,365.91a11.49,11.49,0,0,1-1.62,1.78c-1.05,1-2.53,2.44-4.23,3.93s-3.28,2.77-4.45,3.68a10.422,10.422,0,0,1-2,1.36,13.612,13.612,0,0,1,1.75-1.63l4.35-3.78,4.32-3.81a13.057,13.057,0,0,1,1.88-1.53Z" fill="#263238"/>
        <path id="Path_118" data-name="Path 118" d="M399.85,376.23a18.264,18.264,0,0,1-1.72-2.38c-1.1-1.62-2.48-3.62-4-5.84l-4.08-5.77a18.338,18.338,0,0,1-1.63-2.44,16.553,16.553,0,0,1,1.91,2.23c1.12,1.43,2.62,3.44,4.2,5.71s2.94,4.38,3.89,5.92a15.33,15.33,0,0,1,1.43,2.57Z" fill="#263238"/>
        <path id="Path_119" data-name="Path 119" d="M393.14,343.79c.07.11-4.18,3-9.5,6.4s-9.69,6.1-9.76,6,4.18-3,9.5-6.39S393.07,343.68,393.14,343.79Z" fill="#263238"/>
        <path id="Path_120" data-name="Path 120" d="M405.14,356.74a157.368,157.368,0,0,1-12.53-12.24A157.274,157.274,0,0,1,405.14,356.74Z" fill="#263238"/>
        <path id="Path_121" data-name="Path 121" d="M408.15,356.48l3.65-.31a18.13,18.13,0,0,0,7.38-2.25,29.762,29.762,0,0,1,3.43-1.73c4.52-1.81,9.55-1.49,14.41-1.73A59.72,59.72,0,0,0,460,344.6a2.24,2.24,0,0,0,1-.91c.76-1.37-.64-2.58-1.84-3.32-6.15-3.79-12.41-7.63-19.39-9.51s-14.89-1.57-20.84,2.53c-7,4.81-9.54,14.69-10.72,23.09" fill="#ff725e"/>
        <path id="Path_122" data-name="Path 122" d="M461,343.24a2.75,2.75,0,0,1-.62-.29l-1.73-.9c-1.5-.79-3.66-2-6.39-3.27a61,61,0,0,0-9.9-3.81,32.67,32.67,0,0,0-12.82-1,22,22,0,0,0-11.7,5,26,26,0,0,0-6.08,8.55,68.916,68.916,0,0,0-2.65,6.66l-.65,1.84a2.689,2.689,0,0,1-.26.63,4.124,4.124,0,0,1,.17-.66c.14-.47.33-1.09.56-1.87a59.734,59.734,0,0,1,2.52-6.74,25.651,25.651,0,0,1,6.1-8.74,22.18,22.18,0,0,1,11.92-5.17,32.6,32.6,0,0,1,13,1.09,57.472,57.472,0,0,1,9.93,3.94c2.72,1.35,4.85,2.56,6.33,3.4l1.69,1a4.2,4.2,0,0,1,.58.34Z" fill="#263238"/>
        <path id="Path_123" data-name="Path 123" d="M452.26,348c-.08.11-4.85-3-10.67-6.9s-10.47-7.19-10.39-7.3,4.85,3,10.66,6.9S452.33,347.84,452.26,348Z" fill="#263238"/>
        <path id="Path_124" data-name="Path 124" d="M447.16,333.5a11.341,11.341,0,0,1-3.47.63,11.791,11.791,0,0,1-3.55-.05,22,22,0,0,1,3.51-.36A24.533,24.533,0,0,1,447.16,333.5Z" fill="#263238"/>
        <path id="Path_125" data-name="Path 125" d="M426.26,330.78a9.45,9.45,0,0,1-1.57,2.44,10.84,10.84,0,0,1-2,2.26,9,9,0,0,1,1.57-2.45,10,10,0,0,1,2-2.25Z" fill="#263238"/>
        <path id="Path_126" data-name="Path 126" d="M430.54,350.77a13.131,13.131,0,0,1-2.3-1.25c-1.38-.84-3.24-2.06-5.24-3.51s-3.74-2.82-5-3.82a13.442,13.442,0,0,1-2-1.7,14.3,14.3,0,0,1,2.19,1.43l5.09,3.7c2,1.44,3.81,2.7,5.14,3.61a16.5,16.5,0,0,1,2.12,1.54Z" fill="#263238"/>
        <path id="Path_127" data-name="Path 127" d="M413.53,372c-3.48-.92-7.64,2.47-8.35,6s.6,7.14,2.15,10.39a53,53,0,0,0,14.4,18.84,35.64,35.64,0,0,0,22,8.11c-1.48-6.84.39-14-.44-20.93a27.24,27.24,0,0,0-24.11-23.88c-2.22-.24-4.79-.58-5.68,1.47" fill="#ff725e"/>
        <path id="Path_128" data-name="Path 128" d="M443.76,415.33a3.13,3.13,0,0,1-.5-.23,8.729,8.729,0,0,1-1.3-.88,13.51,13.51,0,0,1-3.44-4.59c-.56-1.08-1.18-2.25-1.78-3.55l-1.88-4.14a39.082,39.082,0,0,0-2.3-4.43,34.732,34.732,0,0,0-3.17-4.31c-2.38-2.8-4.94-5.22-7.16-7.54a48.8,48.8,0,0,1-5.46-6.55A23.912,23.912,0,0,1,414.1,374c-.22-.65-.38-1.15-.46-1.5a1.929,1.929,0,0,1-.11-.53s.24.71.75,2a26.231,26.231,0,0,0,2.77,5,51.88,51.88,0,0,0,5.5,6.43c2.23,2.29,4.8,4.71,7.21,7.54a35.185,35.185,0,0,1,3.21,4.37,41.552,41.552,0,0,1,2.3,4.49c.64,1.47,1.26,2.86,1.83,4.16s1.19,2.47,1.72,3.56a14.06,14.06,0,0,0,3.26,4.61A17.418,17.418,0,0,0,443.76,415.33Z" fill="#263238"/>
        <path id="Path_129" data-name="Path 129" d="M425.75,409.65a9.57,9.57,0,0,1,.32-2.35c.27-1.43.72-3.4,1.32-5.55s1.25-4.05,1.77-5.42a10.189,10.189,0,0,1,.95-2.17,13.444,13.444,0,0,1-.63,2.28c-.43,1.39-1,3.31-1.62,5.45s-1.1,4.08-1.46,5.49a14.329,14.329,0,0,1-.65,2.27Z" fill="#263238"/>
        <path id="Path_130" data-name="Path 130" d="M443.1,392.86a13.777,13.777,0,0,1-2.46-.56c-1.5-.4-3.57-.93-5.88-1.45s-4.4-.93-5.93-1.21a14.068,14.068,0,0,1-2.46-.55,11.919,11.919,0,0,1,2.52.21c1.54.2,3.66.55,6,1.07s4.39,1.12,5.87,1.6A11.514,11.514,0,0,1,443.1,392.86Z" fill="#263238"/>
        <path id="Path_131" data-name="Path 131" d="M412.82,397.74a14.393,14.393,0,0,1,.38-2.72c.31-1.66.79-3.94,1.44-6.44s1.35-4.73,1.89-6.33a14.584,14.584,0,0,1,1-2.55,16.146,16.146,0,0,1-.67,2.65c-.46,1.62-1.1,3.86-1.75,6.35s-1.18,4.75-1.58,6.39a16.436,16.436,0,0,1-.71,2.65Z" fill="#263238"/>
        <path id="Path_132" data-name="Path 132" d="M435.11,378.23c0,.13-4.37-.22-9.71-.79s-9.68-1.13-9.66-1.26a97.061,97.061,0,0,1,9.71.78C430.8,377.53,435.12,378.1,435.11,378.23Z" fill="#263238"/>
        <path id="Path_133" data-name="Path 133" d="M431.92,431c0,.13-15.28.24-34.13.24s-34.14-.11-34.14-.24,15.28-.25,34.14-.25S431.92,430.82,431.92,431Z" fill="#455a64"/>
        <path id="Path_134" data-name="Path 134" d="M421.29,450.62c0,.14-10.3.25-23,.25s-23-.11-23-.25,10.3-.24,23-.24S421.29,450.49,421.29,450.62Z" fill="#455a64"/>
        <path id="Path_135" data-name="Path 135" d="M420.89,453.44c0,.13-10.12.24-22.6.24s-22.6-.11-22.6-.24,10.12-.25,22.6-.25S420.89,453.3,420.89,453.44Z" fill="#455a64"/>
        <path id="Path_136" data-name="Path 136" d="M421.69,448.31c0,.13-10.65.24-23.79.24s-23.79-.11-23.79-.24,10.65-.25,23.79-.25S421.69,448.17,421.69,448.31Z" fill="#455a64"/>
      </g>
      <g id="freepik--speech-bubble--inject-9">
        <path id="Path_137" data-name="Path 137" d="M285,47.2c-8.92-2-20.37,4.2-23.45,12.54s.26,18.66,7,24.49c-5.24,6.74-5.46,16.76-1,24.06s13,11.68,21.55,11.63a30.32,30.32,0,0,0,22.37-10.78,21.87,21.87,0,0,0,31.17-23.6C352.72,81.85,358.28,68.92,354,59s-17.52-14.67-27.13-9.81c.21-10.77-9.18-20.82-19.94-21.34S285.85,36.46,285,47.2h0" fill="#fafafa"/>
        <path id="Path_138" data-name="Path 138" d="M285,47.2h.21c0,.08-.11,0-.17.07h0A19.311,19.311,0,0,1,286.53,41a21.93,21.93,0,0,1,3.06-5,22.58,22.58,0,0,1,5.63-5,20.72,20.72,0,0,1,8.5-3.08l1.23-.14h1.27a19.149,19.149,0,0,1,2.59.19,19.92,19.92,0,0,1,5.19,1.5,9.3,9.3,0,0,1,1.27.62c.41.23.84.45,1.25.7a24.16,24.16,0,0,1,2.37,1.72,28.207,28.207,0,0,1,2.22,2,28.609,28.609,0,0,1,1.94,2.4,20.73,20.73,0,0,1,4,12.27l-.3-.19A20,20,0,0,1,341,47.92a20.63,20.63,0,0,1,12.31,9.21,19.41,19.41,0,0,1,1.13,16.23A22,22,0,0,1,350,80.79a18.82,18.82,0,0,1-7.3,5l.17-.29a22.42,22.42,0,0,1-1.45,12.59,21.85,21.85,0,0,1-8.34,10,22.71,22.71,0,0,1-21.75,1.25l.31-.06a31.25,31.25,0,0,1-18.27,10.48,26.27,26.27,0,0,1-19.27-4.27,23.69,23.69,0,0,1-6.6-6.83,21.94,21.94,0,0,1-3.08-8.55,22.56,22.56,0,0,1,.42-8.65,20.4,20.4,0,0,1,3.55-7.38v.27a24.55,24.55,0,0,1-6.78-10.11,22.74,22.74,0,0,1-1.25-5.5,20,20,0,0,1,.09-5.31,16.48,16.48,0,0,1,3.87-8.62,22.941,22.941,0,0,1,6.21-5.05,24.64,24.64,0,0,1,5.95-2.39,20.56,20.56,0,0,1,4.66-.62,15.24,15.24,0,0,1,2.89.23c.64.11,1,.19,1,.19l-1-.13a16.22,16.22,0,0,0-2.88-.17,20.67,20.67,0,0,0-4.62.67A24.61,24.61,0,0,0,270.66,50a22.81,22.81,0,0,0-6.11,5,16.21,16.21,0,0,0-3.76,8.49,19.75,19.75,0,0,0-.08,5.22A23.121,23.121,0,0,0,262,74.15a24.11,24.11,0,0,0,6.7,9.93l.14.12-.11.15a20,20,0,0,0-3.46,7.24,22.33,22.33,0,0,0-.4,8.49,21.61,21.61,0,0,0,3,8.37,23.26,23.26,0,0,0,6.48,6.68,25.84,25.84,0,0,0,18.92,4.17,30.78,30.78,0,0,0,18-10.33l.13-.15.18.09a22.22,22.22,0,0,0,21.24-1.23,21.38,21.38,0,0,0,8.14-9.81,21.72,21.72,0,0,0,1.42-12.29v-.21l.21-.07A19.94,19.94,0,0,0,354,73.2a18.87,18.87,0,0,0-1.07-15.82,20.18,20.18,0,0,0-12-9A19.51,19.51,0,0,0,327,49.41l-.31.15v-.34a20.38,20.38,0,0,0-3.9-12,27.847,27.847,0,0,0-1.91-2.37,25.565,25.565,0,0,0-2.17-2,23.452,23.452,0,0,0-2.33-1.7c-.41-.25-.82-.47-1.23-.7a9.688,9.688,0,0,0-1.25-.62,19.869,19.869,0,0,0-5.11-1.55,20.14,20.14,0,0,0-2.54-.19H305l-1.22.13a20.31,20.31,0,0,0-8.39,3A22.44,22.44,0,0,0,286.67,41,20.38,20.38,0,0,0,285,47.2h0c.07,0,.16-.07.19,0H285Z" fill="#263238"/>
        <path id="Path_139" data-name="Path 139" d="M301.81,91.32a11.16,11.16,0,0,0,6.86,1.38,10.77,10.77,0,0,0,7.12-4.43,10.08,10.08,0,0,0,1.86-7.66,9.92,9.92,0,0,0-4.53-6.46,10.77,10.77,0,0,0-6.27-1.7l.18-9a1.6,1.6,0,0,0-3.19-.07l-.23,10.92a1.62,1.62,0,0,0,.61,1.29,1.58,1.58,0,0,0,1.39.29,7.36,7.36,0,0,1,5.8,1,6.74,6.74,0,0,1,3.1,4.34,6.85,6.85,0,0,1-1.32,5.21,7.49,7.49,0,0,1-5,3.13,8.811,8.811,0,0,1-9.12-6.15,1.6,1.6,0,0,0-3.07.91,12.15,12.15,0,0,0,5.81,7Z" fill="#ff725e"/>
        <path id="Path_140" data-name="Path 140" d="M307.64,56.86a1.8,1.8,0,1,0-1.88,1.71,1.8,1.8,0,0,0,1.88-1.71Z" fill="#ff725e"/>
        <path id="Path_141" data-name="Path 141" d="M248.24,97.22a8.74,8.74,0,1,0,7.72,9.69,9.09,9.09,0,0,0-7.72-9.69" fill="#fafafa"/>
        <path id="Path_142" data-name="Path 142" d="M248.29,97.23a6.11,6.11,0,0,1,2.1.45,9.4,9.4,0,0,1,5.8,7.61,8.19,8.19,0,0,1-.93,4.59,9,9,0,0,1-1.5,2.07,9.21,9.21,0,0,1-2.09,1.66,8.34,8.34,0,0,1-10.4-1.19,8.69,8.69,0,0,1-1.66-2.09,8.491,8.491,0,0,1-1-2.35,8.06,8.06,0,0,1,.13-4.68,9.37,9.37,0,0,1,7.36-6.11,5.94,5.94,0,0,1,2.14,0c0,.07-.77-.06-2.11.17a9.23,9.23,0,0,0-4.95,2.71,8.75,8.75,0,0,0-2,3.33,7.7,7.7,0,0,0-.08,4.42,9.13,9.13,0,0,0,2.55,4.2,7.88,7.88,0,0,0,9.79,1.12,8.52,8.52,0,0,0,2-1.57,8.359,8.359,0,0,0,1.43-1.95,7.62,7.62,0,0,0,.93-4.32,9,9,0,0,0-1.23-3.71,9.29,9.29,0,0,0-4.21-3.75,17.6,17.6,0,0,0-2.07-.61Z" fill="#263238"/>
        <path id="Path_143" data-name="Path 143" d="M231.22,116.24a3.77,3.77,0,1,0,3.33,4.18,3.92,3.92,0,0,0-3.33-4.18" fill="#fafafa"/>
        <path id="Path_144" data-name="Path 144" d="M231.24,116.25a1.64,1.64,0,0,1,.93.14,4.08,4.08,0,0,1,2.6,3.32,3.64,3.64,0,0,1-.41,2.06,4,4,0,0,1-7.43-.85,3.64,3.64,0,0,1,.07-2.1,4.12,4.12,0,0,1,1-1.52,4,4,0,0,1,2.3-1.13,1.83,1.83,0,0,1,.94.07c0,.05-.34,0-.9.13a4.08,4.08,0,0,0-2.07,1.19,3.32,3.32,0,0,0-.85,3.23,3.49,3.49,0,0,0,6.54.75,3.32,3.32,0,0,0-.1-3.34,3.88,3.88,0,0,0-1.75-1.62C231.57,116.33,231.23,116.29,231.24,116.25Z" fill="#263238"/>
      </g>
    </g>
    <g transform="matrix(1, 0, 0, 1, 0, 0)" filter="url(#Rectangle_33)">
      <rect id="Rectangle_33-2" data-name="Rectangle 33" width="400" height="40" rx="20" transform="translate(512.5 270)" fill="#74bdcb"/>
    </g>
    <g transform="matrix(1, 0, 0, 1, 0, 0)" filter="url(#Rectangle_34)">
      <rect id="Rectangle_34-2" data-name="Rectangle 34" width="400" height="40" rx="20" transform="translate(512.5 185)" fill="#fff94f"/>
    </g>
    <g transform="matrix(1, 0, 0, 1, 0, 0)" filter="url(#Rectangle_37)">
      <rect id="Rectangle_37-2" data-name="Rectangle 37" width="405.5" height="61.782" rx="9" transform="translate(512.75 63.11)" fill="#4ab566"/>
    </g>
    <g transform="matrix(1, 0, 0, 1, 0, 0)" filter="url(#Rectangle_35)">
      <rect id="Rectangle_35-2" data-name="Rectangle 35" width="400" height="40" rx="20" transform="translate(512.5 440)" fill="#7adca4"/>
    </g>
    <g transform="matrix(1, 0, 0, 1, 0, 0)" filter="url(#Rectangle_36)">
      <rect id="Rectangle_36-2" data-name="Rectangle 36" width="400" height="40" rx="20" transform="translate(512.5 355)" fill="#ffa384"/>
    </g>
    <text id="A_" data-name="A)" transform="translate(543.5 217)" fill="#fff" font-size="30" font-family="SegoeUI, Segoe UI"><tspan x="0" y="0">A)</tspan></text>
    <text id="B_" data-name="B)" transform="translate(541.5 302)" fill="#fff" font-size="30" font-family="SegoeUI, Segoe UI"><tspan x="0" y="0">B)</tspan></text>
    <text id="C_" data-name="C)" transform="translate(541.5 387)" fill="#fff" font-size="30" font-family="SegoeUI, Segoe UI"><tspan x="0" y="0">C)</tspan></text>
    <text id="D_" data-name="D)" transform="translate(543.5 472)" fill="#fff" font-size="30" font-family="SegoeUI, Segoe UI"><tspan x="0" y="0">D)</tspan></text>
    <text id="What_s_your_opinion_" data-name="What&apos;s your opinion?" transform="translate(543 104)" fill="#fff" font-size="40" font-family="Sitka Banner" font-weight="600"><tspan x="0" y="0">What&apos;s your opinion?</tspan></text>
    <text id="Hi" transform="translate(696 301)" fill="#fff" font-size="36" font-family="Sitka Banner" font-weight="600"><tspan x="0" y="0">Hi</tspan></text>
    <text id="Hello" transform="translate(676 216)" fill="#fff" font-size="36" font-family="Sitka Banner" font-weight="600"><tspan x="0" y="0">Hello</tspan></text>
    <text id="Tata" transform="translate(682 386)" fill="#fff" font-size="36" font-family="Sitka Banner" font-weight="600"><tspan x="0" y="0">Tata</tspan></text>
    <text id="Bye_Bye" data-name="Bye Bye" transform="translate(660 467)" fill="#fff" font-size="36" font-family="Sitka Banner" font-weight="600"><tspan x="0" y="0">Bye Bye</tspan></text>
  </g>
</svg>
