<?xml version="1.0" standalone="no"?>
<!DOCTYPE svg PUBLIC "-//W3C//DTD SVG 20010904//EN"
 "http://www.w3.org/TR/2001/REC-SVG-20010904/DTD/svg10.dtd">
<svg version="1.0" xmlns="http://www.w3.org/2000/svg"
 width="1080.000000pt" height="341.000000pt" viewBox="0 0 1080.000000 341.000000"
 preserveAspectRatio="xMidYMid meet">
<metadata>
Created by potrace 1.16, written by Peter Selinger 2001-2019
</metadata>
<g transform="translate(0.000000,341.000000) scale(0.100000,-0.100000)"
fill="#000000" stroke="none">
<path d="M1564 3388 c-115 -38 -211 -136 -250 -257 -26 -77 -25 -224 1 -306
31 -97 95 -204 157 -261 38 -36 122 -94 136 -94 16 0 72 -31 72 -40 0 -18
-103 -253 -164 -371 -107 -213 -335 -536 -481 -684 -22 -22 -122 -102 -148
-119 -72 -45 -154 -50 -192 -12 -78 78 -95 351 -43 681 47 295 170 668 290
872 43 74 47 99 17 137 -43 55 -126 73 -185 40 -16 -9 -195 -118 -399 -243
l-370 -226 0 -110 0 -110 32 2 c35 3 52 13 291 161 111 69 162 96 162 85 0 -8
-16 -59 -36 -112 -53 -139 -74 -212 -107 -361 -31 -142 -57 -354 -57 -461 0
-160 45 -352 105 -454 44 -75 92 -118 175 -157 58 -28 74 -31 165 -32 138 -1
242 34 377 125 304 207 671 724 866 1224 l51 130 40 10 c22 6 43 13 47 18 4 4
14 7 23 7 9 0 43 14 76 30 33 17 61 30 62 30 2 0 3 -10 3 -22 1 -43 45 -112
86 -135 32 -19 55 -23 125 -23 77 0 89 3 131 29 65 41 83 78 83 172 0 68 -3
79 -29 114 -16 21 -46 45 -67 54 -34 14 -37 18 -32 48 7 43 -3 78 -29 103 -36
33 -80 26 -161 -27 -87 -58 -157 -95 -227 -123 l-52 -21 6 63 c3 35 8 91 12
126 6 60 -1 121 -28 232 -34 140 -133 241 -274 279 -65 17 -190 12 -260 -11z
m188 -256 c14 -8 32 -27 39 -41 17 -37 23 -174 10 -251 -25 -157 -26 -158 -83
-129 -55 28 -101 79 -137 150 -46 92 -44 182 7 257 13 20 83 41 112 35 14 -3
37 -13 52 -21z"/>
<path d="M3322 3195 c-155 -73 -318 -275 -427 -530 -9 -22 -21 -49 -26 -60 -5
-11 -18 -47 -29 -80 -12 -33 -25 -69 -30 -80 -5 -11 -14 -38 -21 -60 -6 -22
-15 -49 -20 -60 -4 -11 -10 -31 -14 -45 -3 -14 -11 -41 -16 -60 -20 -69 -42
-166 -59 -255 -25 -132 -31 -178 -37 -281 l-5 -111 -52 -55 c-105 -111 -203
-166 -271 -154 -55 11 -67 38 -67 158 1 148 42 300 131 476 50 99 38 147 -46
183 -58 25 -87 24 -148 -5 -111 -51 -187 -218 -254 -554 -38 -189 29 -395 154
-472 98 -61 189 -63 366 -11 44 14 194 103 230 137 l27 25 20 -33 c19 -30 74
-87 114 -117 77 -57 246 -67 363 -21 11 4 35 14 53 21 48 17 144 81 196 129
41 38 45 40 51 21 9 -30 79 -115 115 -141 129 -92 339 -76 519 38 l53 34 42
-40 c65 -63 138 -92 231 -92 106 0 196 44 272 135 20 25 41 45 45 45 4 0 15
-14 23 -31 25 -47 88 -103 134 -116 50 -16 137 -17 182 -2 54 17 80 30 146 76
l63 42 26 -35 c75 -98 268 -144 402 -95 56 21 68 28 116 70 l29 26 -7 -40 c-3
-22 -6 -45 -6 -52 0 -6 -21 -23 -47 -39 -234 -135 -473 -328 -579 -466 -112
-145 -147 -296 -96 -418 15 -36 81 -96 127 -116 53 -22 213 -22 278 0 176 60
295 195 397 451 49 121 140 416 140 450 0 7 124 77 265 150 l130 66 80 -39
c106 -53 144 -62 265 -62 95 0 126 4 220 31 73 21 189 79 261 130 l25 18 -14
-62 c-7 -34 -17 -78 -22 -97 -4 -19 -13 -60 -20 -90 -7 -30 -16 -71 -20 -90
-4 -19 -13 -60 -20 -90 -7 -30 -16 -73 -21 -95 -5 -22 -14 -65 -20 -95 -6 -30
-15 -75 -20 -100 -21 -100 -32 -198 -25 -223 5 -23 12 -27 44 -27 86 0 212 96
257 195 12 28 36 104 52 170 28 113 36 146 64 278 6 28 15 65 20 81 5 16 9 41
9 55 0 52 13 58 71 31 43 -20 67 -25 131 -24 44 1 89 6 101 11 110 50 142 68
194 111 72 60 149 159 203 263 38 73 42 78 97 100 32 13 87 40 123 61 36 21
66 34 68 29 2 -6 -1 -27 -7 -48 -16 -58 -13 -240 5 -292 31 -89 72 -152 119
-181 99 -61 226 -63 348 -5 51 24 132 98 172 158 34 51 44 51 43 1 -1 -44 44
-137 78 -161 40 -28 90 -43 141 -43 78 0 226 48 279 91 7 6 26 -5 53 -31 40
-38 45 -40 104 -40 83 0 143 36 175 104 12 25 22 49 22 54 0 9 60 161 92 232
11 25 31 70 45 100 13 30 30 67 37 83 l13 27 13 -41 c39 -117 213 -153 423
-87 l37 11 0 134 c0 73 -2 133 -5 133 -2 0 -26 -7 -52 -16 -26 -9 -67 -17 -92
-18 -54 -1 -54 0 -15 94 19 46 27 84 28 128 1 59 -1 65 -31 92 -43 38 -125 50
-177 25 -53 -25 -166 -152 -254 -286 -112 -170 -104 -158 -97 -129 25 113 42
195 54 274 13 78 -4 117 -63 146 -40 19 -45 19 -87 5 -51 -18 -103 -65 -128
-115 -16 -30 -44 -130 -66 -233 -11 -53 -35 -251 -35 -292 0 -36 -5 -45 -43
-77 -86 -71 -159 -96 -187 -63 -10 12 -10 30 -1 82 13 79 27 149 41 213 6 25
15 61 19 80 4 19 29 97 54 172 26 75 47 148 47 161 0 67 -124 109 -213 72 -65
-27 -83 -63 -167 -335 -62 -198 -74 -232 -107 -290 -82 -145 -252 -237 -300
-163 -51 78 10 386 129 643 37 81 22 116 -60 144 -62 22 -100 20 -142 -5 -45
-28 -69 -57 -116 -137 -28 -47 -58 -79 -113 -123 -76 -59 -188 -125 -197 -116
-3 3 -7 38 -8 78 -4 91 -17 134 -59 196 -72 108 -194 144 -365 108 -177 -37
-267 -101 -374 -265 -59 -92 -94 -161 -129 -255 -18 -49 -36 -94 -40 -98 -4
-5 -17 -4 -29 3 -29 16 -58 7 -100 -31 -102 -91 -266 -159 -401 -167 -109 -6
-149 2 -185 35 l-28 26 54 13 c204 50 317 103 402 186 99 96 135 207 104 326
-26 101 -82 172 -165 209 -58 26 -221 22 -296 -7 -115 -44 -221 -133 -304
-256 -87 -130 -126 -250 -124 -391 l1 -93 -104 -70 c-67 -45 -104 -65 -104
-55 0 8 9 49 20 92 27 107 95 389 120 496 32 138 26 174 -35 216 -29 19 -44
22 -100 19 -54 -2 -66 0 -71 14 -11 37 -55 52 -144 50 -159 -3 -288 -62 -425
-194 -133 -127 -190 -219 -226 -363 -17 -66 -63 -122 -142 -174 -124 -81 -170
-64 -148 53 23 122 31 162 36 196 2 19 10 62 16 95 45 249 46 263 16 300 -24
28 -28 29 -101 28 -72 -1 -76 0 -76 22 0 39 -65 75 -136 75 -65 0 -197 -41
-279 -87 -116 -64 -250 -209 -308 -331 -37 -79 -46 -115 -59 -222 -9 -81 -11
-87 -49 -122 -63 -57 -132 -88 -202 -88 -52 0 -62 3 -85 28 -34 37 -52 103
-52 193 l0 72 110 104 c60 57 138 139 173 181 69 84 178 232 199 272 7 14 26
44 41 67 15 24 27 46 27 50 0 3 6 14 14 22 29 33 135 260 170 364 28 84 38
131 42 210 9 151 -19 227 -101 275 -36 20 -51 22 -141 20 -91 -3 -106 -6 -167
-37 -215 -109 -395 -394 -540 -856 -55 -174 -85 -310 -126 -566 -6 -37 -11
-91 -11 -121 l0 -55 -82 -79 c-107 -102 -184 -144 -264 -144 -33 0 -66 6 -75
13 -36 27 -53 80 -57 180 l-4 97 124 123 c137 134 216 230 319 384 66 97 81
122 135 221 60 106 73 132 107 212 72 169 92 253 91 375 -1 135 -25 188 -107
234 -31 17 -54 21 -130 21 -84 -1 -99 -4 -165 -35z m96 -297 c35 -35 -8 -193
-110 -406 -72 -151 -249 -435 -293 -472 -14 -12 -15 -8 -9 31 11 74 42 202 80
330 35 119 42 140 70 206 8 17 14 35 14 40 0 11 71 151 95 188 27 41 36 50 76
74 39 24 60 26 77 9z m803 -10 c30 -57 -61 -304 -208 -563 -66 -115 -85 -146
-148 -235 l-60 -85 -3 34 c-2 19 2 55 8 80 6 25 15 62 20 81 66 270 162 521
239 628 55 75 128 104 152 60z m615 -920 c-3 -18 -10 -51 -15 -73 -5 -22 -18
-85 -30 -140 -34 -164 -54 -219 -105 -288 -64 -87 -221 -106 -255 -30 -19 41
-14 176 9 233 63 160 203 294 332 319 71 14 71 14 64 -21z m1204 -43 c0 -2 -4
-14 -9 -27 -5 -13 -14 -41 -19 -63 -74 -287 -115 -378 -202 -436 -36 -24 -53
-29 -106 -29 -60 0 -64 2 -79 30 -78 151 126 455 345 514 62 17 70 18 70 11z
m2047 -20 l28 -25 -22 -19 c-12 -10 -37 -31 -54 -45 -75 -63 -76 -190 -3 -243
27 -20 28 -22 14 -49 -22 -42 -111 -128 -155 -148 -60 -29 -106 -31 -159 -8
-25 12 -46 27 -46 35 0 23 58 208 88 282 25 59 79 161 99 186 48 58 162 77
210 34z m-1083 -7 c48 -77 -78 -198 -298 -287 l-29 -12 5 45 c8 65 50 145 106
201 54 54 95 73 159 74 34 1 46 -4 57 -21z m-1159 -1090 c-17 -85 -97 -261
-154 -337 -59 -79 -94 -113 -146 -137 -86 -41 -128 -26 -128 44 0 97 99 219
303 374 63 48 119 88 123 88 5 0 6 -15 2 -32z"/>
</g>
</svg>
